<svg xmlns="http://www.w3.org/2000/svg" xmlns:xlink="http://www.w3.org/1999/xlink" width="710" height="260" data-version="6.2"><defs>





<linearGradient id="IDI_54u5pyc3" x1="0" y1="0.5" x2="1" y2="0.5"><stop offset="0" stop-color="#FFFFFF" stop-opacity="0"/><stop offset="1" stop-color="#FFFFFF" stop-opacity="1"/></linearGradient><linearGradient id="IDI_556htohc" x1="0" y1="0.5" x2="1" y2="0.5"><stop offset="0" stop-color="#FFFFFF" stop-opacity="0"/><stop offset="1" stop-color="#FFFFFF" stop-opacity="1"/></linearGradient><linearGradient id="IDI_569w7tal" x1="0" y1="0.5" x2="1" y2="0.5"><stop offset="0" stop-color="#FFFFFF" stop-opacity="0"/><stop offset="1" stop-color="#FFFFFF" stop-opacity="1"/></linearGradient><linearGradient id="IDI_5712mtzf" x1="0" y1="0.5" x2="1" y2="0.5"><stop offset="0" stop-color="#FFFFFF" stop-opacity="0"/><stop offset="1" stop-color="#FFFFFF" stop-opacity="1"/></linearGradient></defs><svg class="page-2D showed" xmlns="http://www.w3.org/2000/svg" x="0px" y="0" width="710" height="260" data-width="710" data-height="260" transform="matrix(1 0 0 1 0 0)" viewBox="0 0 710 260">
    <g class="content">
            <g class="layers" id="IDI_588kli0k">
                
            <g transform="matrix(1 0 0 1 0 0)" name="Layer 1" data-color="#ff7f00" class="layer selected"><path d="M -0.00009439876885153353 0.000023113921997719444 L 64.72248077392578 0.000023113921997719444 L 64.72248077392578 11.58994197845459 L -0.00009439876885153353 11.58994197845459 L -0.00009439876885153353 0.000023113921997719444 Z " stroke="none" fill="url(#IDI_54u5pyc3)" stroke-width="1.0215556774030081" transform="matrix(1 0 0 1 232.747 28.884)" class="" fill-opacity="1"/><path d="M -0.000015299425285775214 0.000060655052948277444 L 64.72254943847656 0.000060655052948277444 L 64.72254943847656 11.58997917175293 L -0.000015299425285775214 11.58997917175293 L -0.000015299425285775214 0.000060655052948277444 Z " stroke="none" fill="url(#IDI_5712mtzf)" stroke-width="1.021555677402986" transform="matrix(1 0 0 1 232.827 228.395)" class="" fill-opacity="1"/><path d="M 0.000024444581868010573 0.00002173488974221982 L 31.08079719543457 0.00002173488974221982 L 31.08079719543457 11.589941024780273 L 0.000024444581868010573 11.589941024780273 L 0.000024444581868010573 0.00002173488974221982 Z " stroke="none" fill="url(#IDI_556htohc)" stroke-width="0.7062714318948112" transform="matrix(1 0 0 1 266.468 143.284)" class="" fill-opacity="1"/><path d="M -0.000007792776159476489 0.000027710868380381726 L 31.08076286315918 0.000027710868380381726 L 31.08076286315918 11.589949607849121 L -0.000007792776159476489 11.589949607849121 L -0.000007792776159476489 0.000027710868380381726 Z " stroke="none" fill="url(#IDI_569w7tal)" stroke-width="0.7062714318948065" transform="matrix(1 0 0 1 266.403 113.994)" class="" fill-opacity="1"/><path fill-rule="evenodd" d="M 351.79998779296875 412.5 L 352 406.10003662109375 L 352.3999938964844 399.7000427246094 L 353.29998779296875 393.3999938964844 L 354.3999938964844 387.2000427246094 L 355.8999938964844 381 L 357.70001220703125 374.8999938964844 L 359.79998779296875 368.8000183105469 L 362.29998779296875 363.0000305175781 L 365 357.2000427246094 L 368.1000061035156 351.60003662109375 L 371.3999938964844 346.20001220703125 L 375 340.8999938964844 L 378.8999938964844 335.79998779296875 L 383 331 L 387.3999938964844 326.3999938964844 L 392 322 L 396.8999938964844 317.9000244140625 L 401.8999938964844 314 L 407.20001220703125 310.4000244140625 L 412.6000061035156 307 L 418.20001220703125 304 L 424 301.20001220703125 L 429.8999938964844 298.79998779296875 L 435.79998779296875 296.70001220703125 L 441.8999938964844 294.8999938964844 L 448.20001220703125 293.4000244140625 L 454.3999938964844 292.20001220703125 L 460.70001220703125 291.3999938964844 L 467.1000061035156 290.9000244140625 L 473.5 290.70001220703125 L 479.79998779296875 290.9000244140625 L 486.20001220703125 291.3999938964844 L 492.5 292.20001220703125 L 498.79998779296875 293.4000244140625 L 505 294.8999938964844 L 511.1000061035156 296.70001220703125 L 517.0999755859375 298.79998779296875 L 523 301.20001220703125 L 528.7000122070312 304 L 534.2999877929688 307 L 539.7000122070312 310.29998779296875 L 545 314 L 550 317.8000183105469 L 554.9000244140625 322 L 559.5 326.3999938964844 L 563.9000244140625 331 L 568 335.79998779296875 L 571.9000244140625 340.8999938964844 L 575.5 346.1000061035156 L 578.7999877929688 351.60003662109375 L 581.9000244140625 357.2000427246094 L 584.5999755859375 362.9000244140625 L 587.0999755859375 368.8000183105469 L 589.2000122070312 374.79998779296875 L 591 380.8999938964844 L 592.5 387.10003662109375 L 593.7000122070312 393.3999938964844 L 594.5 399.7000427246094 L 595 406 L 595.2000122070312 412.3999938964844 L 595 418.79998779296875 L 594.5 425.1000061035156 L 593.7000122070312 431.5 L 592.5 437.7000427246094 L 591 443.8999938964844 L 589.2000122070312 450 L 587.0999755859375 456.0000305175781 L 584.5999755859375 461.9000244140625 L 581.9000244140625 467.7000427246094 L 578.9000244140625 473.3000183105469 L 575.5999755859375 478.70001220703125 L 571.9000244140625 484 L 568.0999755859375 489 L 563.9000244140625 493.8999938964844 L 559.5 498.5000305175781 L 554.9000244140625 502.8999938964844 L 550 507 L 545 510.9000244140625 L 539.7999877929688 514.5 L 534.2999877929688 517.7999877929688 L 528.7000122070312 520.9000244140625 L 523 523.5999755859375 L 517.0999755859375 526.0999755859375 L 511.1000061035156 528.2000122070312 L 505 530 L 498.79998779296875 531.5 L 492.5 532.5999755859375 L 486.20001220703125 533.5 L 479.79998779296875 534 L 473.5 534.0999755859375 L 467.1000061035156 534 L 460.70001220703125 533.5 L 454.3999938964844 532.5999755859375 L 448.20001220703125 531.5 L 442 530 L 435.8999938964844 528.2000122070312 L 429.8999938964844 526.0999755859375 L 424 523.5999755859375 L 418.20001220703125 520.9000244140625 L 412.6000061035156 517.9000244140625 L 407.20001220703125 514.5 L 401.8999938964844 510.9000244140625 L 396.8999938964844 507 L 392 502.8999938964844 L 387.3999938964844 498.5000305175781 L 383 493.8999938964844 L 378.8999938964844 489 L 375 484 L 371.3999938964844 478.79998779296875 L 368.1000061035156 473.3000183105469 L 365 467.7000427246094 L 362.29998779296875 462 L 359.79998779296875 456.10003662109375 L 357.70001220703125 450 L 355.8999938964844 443.8999938964844 L 354.3999938964844 437.7000427246094 L 353.29998779296875 431.5 L 352.3999938964844 425.20001220703125 L 351.8999938964844 418.79998779296875 L 351.70001220703125 412.5 L 351.79998779296875 412.5 Z " class="g2" fill="#FFC000" transform="matrix(1 0 0 1 -341.252 -280.816)"/><path d="M 389 353.9000244140625 L 411.5 353.9000244140625 L 450.79998779296875 469.4000244140625 L 525.9000244140625 469.4000244140625 " class="g3" fill="none" stroke="#355F1B" stroke-width="13.101593349158762" stroke-linecap="butt" stroke-linejoin="round" transform="matrix(1 0 0 1 -341.252 -280.816)"/><path fill-rule="evenodd" d="M 421.1000061035156 383.70001220703125 C 421.1000061035156 380.5000305175781 423.70001220703125 377.9000244140625 427 377.9000244140625 L 552.0999755859375 377.9000244140625 C 555.2999877929688 377.9000244140625 558 380.5000305175781 558 383.70001220703125 L 539.2000122070312 439.4000244140625 C 537.4000244140625 443.1000061035156 534.0999755859375 445 530.9000244140625 445 L 446.8999938964844 445.2000427246094 C 443.70001220703125 445.2000427246094 441.3999938964844 442.8999938964844 439.3999938964844 439.4000244140625 L 421.1000061035156 383.70001220703125 Z " class="g1" fill="#355F1B" transform="matrix(1 0 0 1 -341.252 -280.816)"/><path fill-rule="evenodd" d="M 435.20001220703125 478.20001220703125 L 435.20001220703125 477.5000305175781 L 435.29998779296875 476.7000427246094 L 435.3999938964844 475.9000244140625 L 435.5 475.2000427246094 L 435.70001220703125 474.3999938964844 L 435.8999938964844 473.70001220703125 L 436.1000061035156 473 L 436.3999938964844 472.29998779296875 L 436.79998779296875 471.6000061035156 L 437.1000061035156 470.9000244140625 L 437.5 470.2000427246094 L 437.8999938964844 469.6000061035156 L 438.3999938964844 469 L 438.8999938964844 468.4000244140625 L 439.3999938964844 467.79998779296875 L 439.8999938964844 467.29998779296875 L 440.5 466.8000183105469 L 441.1000061035156 466.29998779296875 L 441.70001220703125 465.8000183105469 L 442.29998779296875 465.3999938964844 L 443 465.0000305175781 L 443.70001220703125 464.6000061035156 L 444.3999938964844 464.3000183105469 L 445.1000061035156 464 L 445.79998779296875 463.79998779296875 L 446.5 463.60003662109375 L 447.29998779296875 463.4000244140625 L 448.1000061035156 463.3000183105469 L 448.79998779296875 463.20001220703125 L 449.6000061035156 463.1000061035156 L 451.1000061035156 463.1000061035156 L 451.8999938964844 463.20001220703125 L 452.70001220703125 463.3000183105469 L 453.5 463.4000244140625 L 454.20001220703125 463.60003662109375 L 455 463.79998779296875 L 455.79998779296875 464.1000061035156 L 456.5 464.4000244140625 L 457.20001220703125 464.70001220703125 L 457.8999938964844 465.10003662109375 L 458.6000061035156 465.5 L 459.20001220703125 466.0000305175781 L 459.79998779296875 466.5 L 460.3999938964844 467 L 461 467.5000305175781 L 461.6000061035156 468.1000061035156 L 462.1000061035156 468.70001220703125 L 462.6000061035156 469.3000183105469 L 463 470.0000305175781 L 463.3999938964844 470.6000061035156 L 463.79998779296875 471.29998779296875 L 464.20001220703125 472 L 464.5 472.79998779296875 L 464.70001220703125 473.5000305175781 L 464.8999938964844 474.3000183105469 L 465.1000061035156 475.0000305175781 L 465.29998779296875 475.8000183105469 L 465.3999938964844 476.6000061035156 L 465.3999938964844 477.4000244140625 L 465.5 478.20001220703125 L 465.5 479 L 465.3999938964844 479.79998779296875 L 465.29998779296875 480.6000061035156 L 465.1000061035156 481.3999938964844 L 464.8999938964844 482.1000061035156 L 464.70001220703125 482.8999938964844 L 464.5 483.60003662109375 L 464.20001220703125 484.3000183105469 L 463.79998779296875 485.10003662109375 L 463.3999938964844 485.8000183105469 L 463 486.3999938964844 L 462.6000061035156 487.1000061035156 L 462.1000061035156 487.7000427246094 L 461.6000061035156 488.3000183105469 L 461 488.8999938964844 L 460.5 489.5 L 459.8999938964844 490.0000305175781 L 459.20001220703125 490.5 L 458.6000061035156 490.9000244140625 L 457.8999938964844 491.29998779296875 L 457.20001220703125 491.7000427246094 L 456.5 492 L 455.79998779296875 492.3000183105469 L 455 492.60003662109375 L 454.20001220703125 492.79998779296875 L 453.5 493 L 452.70001220703125 493.20001220703125 L 452 493.3000183105469 L 451.1000061035156 493.3000183105469 L 450.3999938964844 493.4000244140625 L 449.6000061035156 493.4000244140625 L 448.70001220703125 493.3000183105469 L 448 493.20001220703125 L 447.20001220703125 493 L 446.5 492.79998779296875 L 445.70001220703125 492.60003662109375 L 444.8999938964844 492.4000244140625 L 444.20001220703125 492.1000061035156 L 443.5 491.7000427246094 L 442.79998779296875 491.29998779296875 L 442.1000061035156 490.9000244140625 L 441.5 490.5 L 440.79998779296875 490.0000305175781 L 440.20001220703125 489.5 L 439.70001220703125 488.8999938964844 L 439.1000061035156 488.4000244140625 L 438.6000061035156 487.79998779296875 L 438.1000061035156 487.1000061035156 L 437.70001220703125 486.5 L 437.20001220703125 485.8000183105469 L 436.79998779296875 485.10003662109375 L 436.5 484.3999938964844 L 436.20001220703125 483.70001220703125 L 435.8999938964844 482.8999938964844 L 435.70001220703125 482.1000061035156 L 435.5 481.3999938964844 L 435.3999938964844 480.6000061035156 L 435.29998779296875 479.79998779296875 L 435.20001220703125 479 L 435.20001220703125 478.20001220703125 Z " class="g1" fill="#355F1B" transform="matrix(1 0 0 1 -341.252 -280.816)"/><path fill-rule="evenodd" d="M 508.29998779296875 478.20001220703125 L 508.29998779296875 477.5000305175781 L 508.3999938964844 476.7000427246094 L 508.5 475.9000244140625 L 508.6000061035156 475.2000427246094 L 508.79998779296875 474.3999938964844 L 509 473.70001220703125 L 509.20001220703125 473 L 509.5 472.29998779296875 L 509.79998779296875 471.6000061035156 L 510.20001220703125 470.9000244140625 L 510.5 470.2000427246094 L 511 469.6000061035156 L 511.5 469 L 511.8999938964844 468.4000244140625 L 512.5 467.79998779296875 L 513 467.29998779296875 L 513.5 466.8000183105469 L 514.0999755859375 466.29998779296875 L 514.7000122070312 465.8000183105469 L 515.4000244140625 465.3999938964844 L 516 465.0000305175781 L 516.7000122070312 464.6000061035156 L 517.4000244140625 464.3000183105469 L 518.2000122070312 464 L 518.9000244140625 463.79998779296875 L 519.5999755859375 463.60003662109375 L 520.4000244140625 463.4000244140625 L 521.0999755859375 463.3000183105469 L 521.9000244140625 463.20001220703125 L 522.5999755859375 463.1000061035156 L 524.2000122070312 463.1000061035156 L 525 463.20001220703125 L 525.7000122070312 463.3000183105469 L 526.5 463.4000244140625 L 527.2999877929688 463.60003662109375 L 528.0999755859375 463.79998779296875 L 528.7999877929688 464.1000061035156 L 529.5999755859375 464.4000244140625 L 530.2999877929688 464.70001220703125 L 530.9000244140625 465.10003662109375 L 531.5999755859375 465.5 L 532.2999877929688 466.0000305175781 L 532.9000244140625 466.5 L 533.5 467 L 534.0999755859375 467.5000305175781 L 534.5999755859375 468.1000061035156 L 535.0999755859375 468.70001220703125 L 535.5999755859375 469.3000183105469 L 536.0999755859375 470.0000305175781 L 536.5 470.6000061035156 L 536.9000244140625 471.29998779296875 L 537.2000122070312 472 L 537.5 472.79998779296875 L 537.7999877929688 473.5000305175781 L 538 474.3000183105469 L 538.2000122070312 475.0000305175781 L 538.4000244140625 475.8000183105469 L 538.4000244140625 476.6000061035156 L 538.5 477.4000244140625 L 538.5 479 L 538.4000244140625 479.79998779296875 L 538.4000244140625 480.6000061035156 L 538.2000122070312 481.3999938964844 L 538 482.1000061035156 L 537.7999877929688 482.8999938964844 L 537.5 483.60003662109375 L 537.2000122070312 484.3000183105469 L 536.9000244140625 485.10003662109375 L 536.5 485.8000183105469 L 536.0999755859375 486.3999938964844 L 535.5999755859375 487.1000061035156 L 535.0999755859375 487.7000427246094 L 534.5999755859375 488.3000183105469 L 534.0999755859375 488.8999938964844 L 533.5 489.5 L 532.9000244140625 490.0000305175781 L 532.2999877929688 490.5 L 531.5999755859375 490.9000244140625 L 531 491.29998779296875 L 530.2999877929688 491.7000427246094 L 529.5999755859375 492 L 528.7999877929688 492.3000183105469 L 528.0999755859375 492.60003662109375 L 527.2999877929688 492.79998779296875 L 526.5999755859375 493 L 525.7999877929688 493.20001220703125 L 525 493.3000183105469 L 524.2000122070312 493.3000183105469 L 523.4000244140625 493.4000244140625 L 522.5999755859375 493.4000244140625 L 521.7999877929688 493.3000183105469 L 521 493.20001220703125 L 520.2000122070312 493 L 519.5 492.79998779296875 L 518.7000122070312 492.60003662109375 L 518 492.4000244140625 L 517.2999877929688 492.1000061035156 L 516.5 491.7000427246094 L 515.7999877929688 491.29998779296875 L 515.2000122070312 490.9000244140625 L 514.5 490.5 L 513.9000244140625 490.0000305175781 L 513.2999877929688 489.5 L 512.7000122070312 488.8999938964844 L 512.0999755859375 488.4000244140625 L 511.6000061035156 487.79998779296875 L 511.20001220703125 487.1000061035156 L 510.70001220703125 486.5 L 510.29998779296875 485.8000183105469 L 509.8999938964844 485.10003662109375 L 509.6000061035156 484.3999938964844 L 509.29998779296875 483.70001220703125 L 509 482.8999938964844 L 508.79998779296875 482.1000061035156 L 508.6000061035156 481.3999938964844 L 508.3999938964844 480.6000061035156 L 508.29998779296875 479.79998779296875 L 508.29998779296875 478.20001220703125 Z " class="g1" fill="#355F1B" transform="matrix(1 0 0 1 -341.252 -280.816)"/><path fill-rule="evenodd" d="M 727.4000244140625 302.79998779296875 L 757.0999755859375 302.79998779296875 L 757.0999755859375 392.8000183105469 L 766.5 394.7000427246094 L 766.5 406.3999938964844 L 728.4000244140625 406.3999938964844 L 728.4000244140625 394.7000427246094 L 737.7999877929688 392.8000183105469 L 737.7999877929688 316.3999938964844 L 727.4000244140625 314.3999938964844 L 727.4000244140625 302.79998779296875 Z " class="g0" fill="#FFFFFF" transform="matrix(1 0 0 1 -341.252 -280.816)"/><path fill-rule="evenodd" d="M 638.7000122070312 309.7000427246094 L 681.7000122070312 309.7000427246094 C 693.0999755859375 309.7000427246094 702 311.8999938964844 708.2999877929688 316.29998779296875 C 714.7000122070312 320.70001220703125 717.9000244140625 327.4000244140625 717.9000244140625 336.1000061035156 C 717.9000244140625 340.7000427246094 716.7000122070312 344.6000061035156 714.4000244140625 348.10003662109375 C 712 351.70001220703125 708.5 354.29998779296875 704 356.1000061035156 C 709.7999877929688 357.29998779296875 714.2000122070312 360 717.0999755859375 364.1000061035156 C 720 368.2000427246094 721.5 372.9000244140625 721.5 378.2000427246094 C 721.5 387.5 718.4000244140625 394.5000305175781 712.2999877929688 399.20001220703125 C 706.2000122070312 404 697.5 406.3999938964844 686.2999877929688 406.3999938964844 L 638.7000122070312 406.3999938964844 L 638.7000122070312 394.7000427246094 L 649 392.8000183105469 L 649 323.29998779296875 L 638.7000122070312 321.29998779296875 L 638.7000122070312 309.7000427246094 Z M 668.4000244140625 324.60003662109375 L 668.4000244140625 350.20001220703125 L 682.2999877929688 350.20001220703125 C 687.5 350.20001220703125 691.5 349.10003662109375 694.2999877929688 347 C 697.0999755859375 344.8999938964844 698.5 341.79998779296875 698.5 337.70001220703125 C 698.5 333.20001220703125 697.0999755859375 329.9000244140625 694.2999877929688 327.8000183105469 C 691.5 325.70001220703125 687.2999877929688 324.60003662109375 681.7000122070312 324.60003662109375 L 668.4000244140625 324.60003662109375 Z M 668.4000244140625 363.6000061035156 L 668.4000244140625 391.5 L 686.2999877929688 391.5 C 691.4000244140625 391.5 695.2999877929688 390.4000244140625 698 388.20001220703125 C 700.7999877929688 385.8999938964844 702.0999755859375 382.6000061035156 702.0999755859375 378.2000427246094 C 702.0999755859375 373.5 700.9000244140625 369.79998779296875 698.5999755859375 367.29998779296875 C 696.2999877929688 364.8999938964844 692.7000122070312 363.6000061035156 687.7999877929688 363.6000061035156 L 668.4000244140625 363.6000061035156 Z " class="g0" fill="#FFFFFF" transform="matrix(1 0 0 1 -341.252 -280.816)"/><path fill-rule="evenodd" d="M 804.5999755859375 333.20001220703125 C 813.5999755859375 333.20001220703125 820.7999877929688 335.3999938964844 826.2999877929688 339.70001220703125 C 831.9000244140625 344.10003662109375 834.7000122070312 350.29998779296875 834.7000122070312 358.3999938964844 L 834.7000122070312 388.10003662109375 C 834.7000122070312 389.20001220703125 834.7000122070312 390.20001220703125 834.7000122070312 391.2000427246094 C 834.7000122070312 392.10003662109375 834.7999877929688 393.10003662109375 835 394 L 840.9000244140625 394.79998779296875 L 840.9000244140625 406.3999938964844 L 818.5 406.3999938964844 C 817.9000244140625 405.20001220703125 817.5 404 817.0999755859375 402.70001220703125 C 816.7000122070312 401.5 816.4000244140625 400.20001220703125 816.2000122070312 398.8999938964844 C 813.9000244140625 401.5 811.0999755859375 403.7000427246094 807.7999877929688 405.4000244140625 C 804.5 407.0000305175781 800.7000122070312 407.8000183105469 796.4000244140625 407.8000183105469 C 789.4000244140625 407.8000183105469 783.7999877929688 405.8999938964844 779.7000122070312 402.10003662109375 C 775.5 398.20001220703125 773.5 393.0000305175781 773.5 386.3999938964844 C 773.5 379.7000427246094 776.0999755859375 374.5000305175781 781.5999755859375 370.79998779296875 C 786.9000244140625 367.10003662109375 794.9000244140625 365.3000183105469 805.2999877929688 365.3000183105469 L 815.2000122070312 365.3000183105469 L 815.2000122070312 358.2000427246094 C 815.2000122070312 354.8000183105469 814.2000122070312 352.1000061035156 812.2000122070312 350.20001220703125 C 810.2000122070312 348.29998779296875 807.2999877929688 347.3000183105469 803.4000244140625 347.3000183105469 C 801.2000122070312 347.3000183105469 799.2000122070312 347.6000061035156 797.5 348.10003662109375 C 795.7999877929688 348.6000061035156 794.4000244140625 349.20001220703125 793.2999877929688 349.8999938964844 L 792 357.6000061035156 L 777.4000244140625 357.6000061035156 L 777.5 341.70001220703125 C 781 339.29998779296875 785.0999755859375 337.3000183105469 789.7000122070312 335.6000061035156 C 794.2999877929688 334 799.2999877929688 333.20001220703125 804.5999755859375 333.20001220703125 Z M 805.2999877929688 375.8999938964844 C 801.2000122070312 375.8999938964844 798.0999755859375 376.79998779296875 796 378.70001220703125 C 793.7999877929688 380.7000427246094 792.7999877929688 383.0000305175781 792.7999877929688 385.70001220703125 C 792.7999877929688 388.10003662109375 793.5999755859375 390 795.0999755859375 391.3999938964844 C 796.7000122070312 392.8000183105469 798.9000244140625 393.3999938964844 801.7000122070312 393.3999938964844 C 804.5999755859375 393.3999938964844 807.2000122070312 392.8000183105469 809.7000122070312 391.5 C 812.0999755859375 390.3000183105469 813.9000244140625 388.7000427246094 815.2000122070312 386.79998779296875 L 815.2000122070312 375.8999938964844 L 805.2999877929688 375.8999938964844 Z " class="g0" fill="#FFFFFF" transform="matrix(1 0 0 1 -341.252 -280.816)"/><path fill-rule="evenodd" d="M 952.7999877929688 333.20001220703125 C 963.4000244140625 333.20001220703125 971.7000122070312 336.60003662109375 977.7000122070312 343.3999938964844 C 983.7000122070312 350.20001220703125 986.7000122070312 359.0000305175781 986.7000122070312 369.79998779296875 L 986.7000122070312 371.20001220703125 C 986.7000122070312 382.0000305175781 983.7000122070312 390.79998779296875 977.7000122070312 397.6000061035156 C 971.7000122070312 404.4000244140625 963.4000244140625 407.8000183105469 952.9000244140625 407.8000183105469 C 942.2000122070312 407.8000183105469 933.9000244140625 404.4000244140625 927.9000244140625 397.6000061035156 C 921.9000244140625 390.79998779296875 918.9000244140625 382.0000305175781 918.9000244140625 371.20001220703125 L 918.9000244140625 369.79998779296875 C 918.9000244140625 359.1000061035156 921.9000244140625 350.29998779296875 927.9000244140625 343.5 C 933.9000244140625 336.60003662109375 942.0999755859375 333.20001220703125 952.7999877929688 333.20001220703125 Z M 952.7999877929688 348.10003662109375 C 947.7000122070312 348.10003662109375 944 350.1000061035156 941.7000122070312 354.20001220703125 C 939.4000244140625 358.2000427246094 938.2000122070312 363.3999938964844 938.2000122070312 369.79998779296875 L 938.2000122070312 371.20001220703125 C 938.2000122070312 377.70001220703125 939.4000244140625 383.0000305175781 941.7000122070312 387.0000305175781 C 944 390.8999938964844 947.7000122070312 392.9000244140625 952.9000244140625 392.9000244140625 C 957.9000244140625 392.9000244140625 961.5 390.8999938964844 963.9000244140625 386.8999938964844 C 966.2000122070312 383.0000305175781 967.4000244140625 377.70001220703125 967.4000244140625 371.20001220703125 L 967.4000244140625 369.79998779296875 C 967.4000244140625 363.3999938964844 966.2000122070312 358.2000427246094 963.7999877929688 354.20001220703125 C 961.5 350.1000061035156 957.7999877929688 348.10003662109375 952.7999877929688 348.10003662109375 Z " class="g0" fill="#FFFFFF" transform="matrix(1 0 0 1 -341.252 -280.816)"/><path fill-rule="evenodd" d="M 1040.5999755859375 333.20001220703125 C 1041.5999755859375 333.20001220703125 1042.699951171875 333.20001220703125 1043.800048828125 333.3999938964844 C 1044.9000244140625 333.5 1045.9000244140625 333.70001220703125 1046.5999755859375 333.8999938964844 L 1044.5999755859375 351.60003662109375 L 1036.5999755859375 351.4000244140625 C 1033.699951171875 351.4000244140625 1031.4000244140625 352 1029.5 353.10003662109375 C 1027.699951171875 354.20001220703125 1026.300048828125 355.7000427246094 1025.300048828125 357.79998779296875 L 1025.300048828125 392.70001220703125 L 1034.5999755859375 394.7000427246094 L 1034.5999755859375 406.3999938964844 L 996.5999755859375 406.3999938964844 L 996.5999755859375 394.7000427246094 L 1005.9000244140625 392.70001220703125 L 1005.9000244140625 348.10003662109375 L 995.5999755859375 346.20001220703125 L 995.5999755859375 334.5000305175781 L 1024 334.5000305175781 L 1024.800048828125 344.8999938964844 C 1026.5 341.3000183105469 1028.699951171875 338.3999938964844 1031.4000244140625 336.29998779296875 C 1034 334.2000427246094 1037.0999755859375 333.20001220703125 1040.5999755859375 333.20001220703125 Z " class="g0" fill="#FFFFFF" transform="matrix(1 0 0 1 -341.252 -280.816)"/><path fill-rule="evenodd" d="M 850.4000244140625 334.5000305175781 L 907.9000244140625 334.5000305175781 L 907.9000244140625 345.60003662109375 L 873.4000244140625 391.5 L 893.5 391.5 L 894.2000122070312 381.8999938964844 L 909.0999755859375 381.8999938964844 L 909.0999755859375 406.3999938964844 L 849.4000244140625 406.3999938964844 L 849.4000244140625 395 L 883.5999755859375 349.5 L 866 349.5 L 865.2000122070312 359.0000305175781 L 850.4000244140625 359.0000305175781 L 850.4000244140625 334.5000305175781 Z " class="g0" fill="#FFFFFF" transform="matrix(1 0 0 1 -341.252 -280.816)"/><path fill-rule="evenodd" d="M 638.7999877929688 424.1000061035156 L 674.4000244140625 424.1000061035156 L 699 495.29998779296875 L 699.4000244140625 495.29998779296875 L 724.2000122070312 424.1000061035156 L 760 424.1000061035156 L 760 435.79998779296875 L 749.5999755859375 437.7000427246094 L 749.5999755859375 507.20001220703125 L 760 509.2000427246094 L 760 520.7999877929688 L 719.9000244140625 520.7999877929688 L 719.9000244140625 509.2000427246094 L 730.2000122070312 507.20001220703125 L 730.2000122070312 492 L 732.0999755859375 449.3000183105469 L 731.7000122070312 449.20001220703125 L 705.7999877929688 520.7999877929688 L 692.7000122070312 520.7999877929688 L 667 449.4000244140625 L 666.5999755859375 449.5000305175781 L 668.4000244140625 492 L 668.4000244140625 507.20001220703125 L 678.7999877929688 509.2000427246094 L 678.7999877929688 520.7999877929688 L 638.7999877929688 520.7999877929688 L 638.7999877929688 509.2000427246094 L 649 507.20001220703125 L 649 437.7000427246094 L 638.7999877929688 435.79998779296875 L 638.7999877929688 424.1000061035156 Z " class="g0" fill="#FFFFFF" transform="matrix(1 0 0 1 -341.252 -280.816)"/><path fill-rule="evenodd" d="M 909.0999755859375 431.29998779296875 L 928.5 431.29998779296875 L 928.5 448.8999938964844 L 941.0999755859375 448.8999938964844 L 941.0999755859375 462.5000305175781 L 928.5 462.5000305175781 L 928.5 499.10003662109375 C 928.5 501.8999938964844 929 503.8999938964844 930.2000122070312 505.0000305175781 C 931.2999877929688 506.29998779296875 932.9000244140625 506.8999938964844 934.7999877929688 506.8999938964844 C 936.2000122070312 506.8999938964844 937.2999877929688 506.79998779296875 938.2999877929688 506.7000427246094 C 939.2999877929688 506.60003662109375 940.5 506.3999938964844 941.7000122070312 506.1000061035156 L 943.4000244140625 520.0999755859375 C 941.0999755859375 520.7999877929688 939 521.300048828125 936.9000244140625 521.5999755859375 C 934.7999877929688 522 932.4000244140625 522.2000122070312 930 522.2000122070312 C 923.2999877929688 522.2000122070312 918.2000122070312 520.2999877929688 914.5 516.5999755859375 C 910.9000244140625 512.9000244140625 909.0999755859375 507.1000061035156 909.0999755859375 499.2000427246094 L 909.0999755859375 462.5000305175781 L 898.5999755859375 462.5000305175781 L 898.5999755859375 448.8999938964844 L 909.0999755859375 448.8999938964844 L 909.0999755859375 431.29998779296875 Z " class="g0" fill="#FFFFFF" transform="matrix(1 0 0 1 -341.252 -280.816)"/><path fill-rule="evenodd" d="M 799.5 447.60003662109375 C 808.5 447.60003662109375 815.7000122070312 449.79998779296875 821.2000122070312 454.20001220703125 C 826.7999877929688 458.5000305175781 829.5999755859375 464.70001220703125 829.5999755859375 472.79998779296875 L 829.5999755859375 502.5000305175781 C 829.5999755859375 503.6000061035156 829.5999755859375 504.6000061035156 829.5999755859375 505.6000061035156 C 829.5999755859375 506.60003662109375 829.7000122070312 507.5000305175781 829.9000244140625 508.4000244140625 L 835.7999877929688 509.2000427246094 L 835.7999877929688 520.7999877929688 L 813.4000244140625 520.7999877929688 C 812.7999877929688 519.6000366210938 812.4000244140625 518.4000244140625 812 517.1000366210938 C 811.5999755859375 515.9000244140625 811.2999877929688 514.6000366210938 811.0999755859375 513.2999877929688 C 808.7999877929688 516 805.9000244140625 518.0999755859375 802.7000122070312 519.7999877929688 C 799.4000244140625 521.4000244140625 795.5999755859375 522.2000122070312 791.2999877929688 522.2000122070312 C 784.2999877929688 522.2000122070312 778.7000122070312 520.2999877929688 774.5 516.5 C 770.4000244140625 512.5999755859375 768.4000244140625 507.4000244140625 768.4000244140625 500.8000183105469 C 768.4000244140625 494.10003662109375 771 488.8999938964844 776.5 485.2000427246094 C 781.7999877929688 481.5 789.7000122070312 479.70001220703125 800.2000122070312 479.70001220703125 L 810.0999755859375 479.70001220703125 L 810.0999755859375 472.7000427246094 C 810.0999755859375 469.2000427246094 809.0999755859375 466.5 807.0999755859375 464.6000061035156 C 805.0999755859375 462.7000427246094 802.2000122070312 461.70001220703125 798.2999877929688 461.70001220703125 C 796.0999755859375 461.70001220703125 794.0999755859375 462 792.4000244140625 462.5000305175781 C 790.7000122070312 463 789.2999877929688 463.60003662109375 788.2000122070312 464.3000183105469 L 786.9000244140625 472 L 772.2999877929688 472 L 772.4000244140625 456.10003662109375 C 775.9000244140625 453.7000427246094 780 451.70001220703125 784.5999755859375 450 C 789.0999755859375 448.4000244140625 794.2000122070312 447.60003662109375 799.5 447.60003662109375 Z M 800.2000122070312 490.29998779296875 C 796.0999755859375 490.29998779296875 793 491.20001220703125 790.9000244140625 493.1000061035156 C 788.7000122070312 495.10003662109375 787.7000122070312 497.4000244140625 787.7000122070312 500.10003662109375 C 787.7000122070312 502.5000305175781 788.4000244140625 504.3999938964844 790 505.8000183105469 C 791.5999755859375 507.20001220703125 793.7999877929688 507.8999938964844 796.5 507.8999938964844 C 799.5 507.8999938964844 802.0999755859375 507.3000183105469 804.5999755859375 506 C 806.9000244140625 504.70001220703125 808.7999877929688 503.1000061035156 810.0999755859375 501.20001220703125 L 810.0999755859375 490.29998779296875 L 800.2000122070312 490.29998779296875 Z " class="g0" fill="#FFFFFF" transform="matrix(1 0 0 1 -341.252 -280.816)"/><path fill-rule="evenodd" d="M 888 447.60003662109375 C 889 447.60003662109375 890.0999755859375 447.60003662109375 891.2000122070312 447.79998779296875 C 892.2999877929688 447.8999938964844 893.2999877929688 448.1000061035156 894.0999755859375 448.4000244140625 L 892 466.0000305175781 L 884 465.8000183105469 C 881.2000122070312 465.8000183105469 878.7999877929688 466.3999938964844 877 467.5000305175781 C 875.0999755859375 468.60003662109375 873.7000122070312 470.10003662109375 872.7000122070312 472.20001220703125 L 872.7000122070312 507.1000061035156 L 882 509.10003662109375 L 882 520.7999877929688 L 844.0999755859375 520.7999877929688 L 844.0999755859375 509.10003662109375 L 853.2999877929688 507.1000061035156 L 853.2999877929688 462.60003662109375 L 843.0999755859375 460.6000061035156 L 843.0999755859375 448.8999938964844 L 871.4000244140625 448.8999938964844 L 872.2000122070312 459.4000244140625 C 873.9000244140625 455.70001220703125 876.0999755859375 452.79998779296875 878.7999877929688 450.70001220703125 C 881.4000244140625 448.60003662109375 884.5 447.60003662109375 888 447.60003662109375 Z " class="g0" fill="#FFFFFF" transform="matrix(1 0 0 1 -341.252 -280.816)"/></g></g>
            <g class="foreground-layers">
                <g class="layer guides locked" style="display:none"/>
            </g>
        </g>
    
<meta xmlns="http://www.w3.org/1999/xhtml" id="page-properties" xmlns:jvs="http://www.janvas.com/ns"><jvs:property name="width" value="710"></jvs:property><jvs:property name="height" value="260"></jvs:property><jvs:property name="unitKey" value="PIXEL"></jvs:property><jvs:property name="drawingScale" value="1"></jvs:property><jvs:property name="fixedDecimals" value="2"></jvs:property><jvs:property name="showGrid" value="false"></jvs:property><jvs:property name="showRulers" value="true"></jvs:property><jvs:property name="gridStep" value="10"></jvs:property></meta></svg></svg>